<?xml version="1.0" encoding="UTF-8"?>
<svg id="Layer_1" data-name="Layer 1" xmlns="http://www.w3.org/2000/svg" version="1.1" viewBox="0 0 687 249">
  <defs>
    <style>
      .cls-1 {
        fill: #1eb5c3;
      }

      .cls-1, .cls-2, .cls-3 {
        stroke-width: 0px;
      }

      .cls-4 {
        isolation: isolate;
      }

      .cls-2 {
        fill: #231f20;
      }

      .cls-3 {
        fill: #fff;
      }
    </style>
  </defs>
  <rect class="cls-1" width="249" height="249"/>
  <g class="cls-4">
    <g class="cls-4">
      <path class="cls-2" d="M83.3,167.6c-8.8,0-16.1-1.4-21.9-4.3-5.8-2.8-10.2-7.1-13.1-12.7-2.9-5.6-4.4-12.7-4.4-21.2s1.4-18.2,4.1-26.1,6.6-14.7,11.6-20.4c5-5.7,11-10.1,17.9-13.3,6.9-3.1,14.5-4.7,22.9-4.7s18.4,3.7,24.2,11.2l-10.1,10.3c-4.5-5.7-9.9-8.6-16.2-8.6s-14.3,2.2-20.2,6.6c-6,4.4-10.6,10.5-14.1,18.2-3.4,7.7-5.1,16.4-5.1,26.2s1,10.5,3,14.3,4.9,6.7,8.8,8.6c3.9,1.9,8.7,2.8,14.6,2.8s16.1-1.4,24.4-4.2l1,12.4c-9,3.2-18.1,4.8-27.3,4.8h-.1Z"/>
      <path class="cls-2" d="M155.6,136.4l-22.3-68.5,14.9-2.2,15.8,56.5h1.3c5-6.4,9.5-12.5,13.5-18.2s7.7-11.6,11.1-17.7,6.6-12.7,9.6-19.9h15c-3.9,9.6-8.2,18.4-13,26.5s-10.1,15.9-16,23.4-12.3,15.1-19.3,23l-10.5-2.8h-.1ZM149.1,166.2l7.4-41.8h14.6l-7.4,41.8h-14.6Z"/>
    </g>
  </g>
  <g>
    <path class="cls-3" d="M325.4,167.6c-30.7,0-46-17.2-46-51.5s3.9-28.9,11.6-37.8,18.6-13.4,32.7-13.4,12.6,1.1,17.6,3.3c5,2.2,8.7,5.3,11,9.3l-8.5,8.4c-2.2-3.3-5.1-5.8-8.6-7.6-3.5-1.8-7.3-2.7-11.4-2.7-9.7,0-17.5,3.4-23.3,10.3-5.9,6.9-8.8,16.7-8.8,29.4,0,27.6,11.9,41.4,35.6,41.4s14.2-1.5,21.2-4.6l2.7,10.3c-8.2,3.3-16.8,5-25.9,5v.2Z"/>
    <path class="cls-3" d="M369.8,166.2V60.8h12.2v105.5h-12.2ZM417.2,166.2v-48.6c0-5.4-1.4-9.5-4.1-12.4s-6.5-4.3-11.5-4.3c-13.2,0-19.8,7.8-19.8,23.3l-4.4-19.1h5.6c.7-5,2.8-8.8,6.2-11.2s8.3-3.7,14.5-3.7,14.5,2.4,18.9,7.2c4.5,4.8,6.7,11.5,6.7,20.2v48.5h-12.2,0Z"/>
    <path class="cls-3" d="M490.4,167.6c-12.5,0-22.2-3.4-29-10.2s-10.2-16.4-10.2-28.9,2.9-21.6,8.6-28.2,13.9-10,24.4-10,17.5,3,23,9.1,8.1,14.7,8.1,26.1-.1,6-.4,8.4h-53.6v-9.7h42.8c0-7.4-1.7-13-5.2-17s-8.3-6-14.5-6-12.2,2.3-16,7-5.7,11.3-5.7,19.9,2.6,16.3,7.7,21.2,12.4,7.4,21.8,7.4,5.9-.2,9-.5,6-.8,9-1.4l1.5,10.9c-3.8.7-7.6,1.3-11.2,1.5-3.6.3-7,.4-10.1.4h0Z"/>
    <path class="cls-3" d="M538.5,166.2v-74.5h11l1.1,15.8v58.8h-12.2.1ZM586,166.2v-48.6c0-5.2-1.4-9.2-4.1-12.1-2.7-2.8-6.5-4.3-11.5-4.3-13.2,0-19.8,7.6-19.8,22.9l-4.4-19.1h5.6c.7-5,2.8-8.8,6.2-11.2s8.3-3.7,14.5-3.7,14.5,2.4,18.9,7.2c4.5,4.8,6.7,11.5,6.7,20.2v48.5h-12.2v.2Z"/>
    <path class="cls-3" d="M647.6,167.6c-9.8,0-17.1-3.2-22.2-9.6-5-6.4-7.6-15.9-7.6-28.3s2.5-22.7,7.6-29.4c5.1-6.7,12.5-10,22.3-10s11.3,1.4,15.1,4.1c3.8,2.8,6.1,6.7,6.9,11.8h5.5l-4.9,20.9c0-8.6-1.7-15.2-5.1-19.6-3.4-4.4-8.4-6.6-15.1-6.6s-11.7,2.4-15.1,7.3c-3.4,4.9-5.1,12-5.1,21.5s1.7,15.8,5.2,20.4c3.4,4.6,8.5,6.9,15.2,6.9s11.6-2.2,15-6.6c3.4-4.4,5.1-11,5.1-19.6l5.1,20.6h-6.2c-.7,5.1-2.9,9-6.6,11.9-3.7,2.9-8.7,4.3-15,4.3h-.1ZM623.9,199.8l-.6-11.2,23.2-.7c8.3-.3,14.3-2.6,18.1-6.9,3.8-4.3,5.7-10.7,5.7-19.2v-53.9l1.2-16.2h11v67.9c0,13.3-3,23.1-8.9,29.4-6,6.3-15.4,9.7-28.5,10.1l-21.2.7Z"/>
  </g>
</svg>